<svg xmlns="http://www.w3.org/2000/svg" viewBox="0 0 65 55" height="98.300000pt" width="77.300000pt"><g xmlns="http://www.w3.org/2000/svg" transform="matrix(-1 0 0 -1 84 82)"><g transform="translate(0.000000,112.000000) scale(0.100000,-0.100000)" fill="#c58fff" stroke="none"><path d="M424 948 l-45 -43 -6 -85 -5 -85 -89 -91 -89 -91 0 -96 c0 -92 1 -98 30 -130 25 -29 36 -34 76 -35 32 0 55 -7 73 -21 14 -12 40 -28 58 -36 17 -8 34 -19 38 -25 3 -5 15 -10 25 -10 10 0 31 -7 47 -16 28 -16 30 -15 157 47 90 45 131 70 137 86 4 12 7 96 6 187 -2 140 -5 167 -19 183 -15 16 -18 38 -18 113 l0 93 -49 48 -48 49 -117 0 -117 0 -45 -42z m313 -20 c32 -31 33 -33 33 -121 0 -78 -2 -88 -15 -77 -8 7 -15 9 -15 4 0 -5 16 -22 35 -37 l35 -28 0 -177 0 -177 -115 -58 c-63 -31 -124 -57 -135 -57 -44 0 -15 28 76 73 53 27 94 50 91 53 -3 3 -55 -20 -117 -51 -107 -54 -113 -55 -131 -39 -11 10 -16 21 -12 25 5 4 55 31 112 59 57 28 101 53 98 56 -3 3 -62 -23 -131 -57 l-125 -63 -26 24 c-14 13 -25 26 -25 30 0 3 54 32 120 63 66 32 120 62 120 66 0 5 -63 -22 -141 -61 l-140 -71 -35 34 c-31 30 -34 38 -34 91 l0 58 78 39 c42 22 71 40 64 41 -22 0 -150 -70 -156 -86 -13 -34 -6 -102 14 -127 11 -14 20 -28 20 -31 0 -12 -24 -6 -42 11 -15 14 -18 32 -18 117 l0 101 105 105 c58 58 105 109 105 114 0 4 -7 3 -15 -4 -13 -11 -15 -4 -15 56 0 63 2 70 32 101 l32 33 120 0 120 0 33 -32z" /><path d="M410 644 c0 -5 13 -23 29 -38 31 -30 45 -67 36 -95 -3 -9 -35 -32 -73 -51 -37 -18 -62 -35 -56 -37 12 -4 126 55 136 71 20 30 8 77 -32 119 -22 23 -40 37 -40 31z" /></g></g></svg>